<?xml version="1.0" encoding="UTF-8" standalone="no"?> <svg xmlns="http://www.w3.org/2000/svg" viewBox="0 0 512 512"><defs><style>.cls-1{fill:#2ecc71;}.cls-2{fill:#f1c40f;}.cls-3{fill:#27ae60;}.cls-4{fill:#f39c12;}</style></defs><title>Ketupat</title><g id="Layer_1" data-name="Layer 1"><rect class="cls-1" x="211.18" y="84.402" width="89.642" height="89.65" transform="translate(-16.389 218.892) rotate(-45.005)"/><rect class="cls-2" x="147.793" y="148.435" width="89.642" height="89.65" transform="translate(-80.24 192.78) rotate(-44.995)"/><path class="cls-3" d="M192.614,256l-63.392,63.392-48.3-48.309a21.329,21.329,0,0,1,0-30.166l48.3-48.309Z"/><rect class="cls-4" x="147.791" y="275.213" width="89.646" height="89.646" transform="translate(-169.876 229.904) rotate(-44.995)"/><polygon class="cls-2" points="382.78 192.619 319.388 256 256.006 192.619 319.388 129.227 382.78 192.619"/><path class="cls-3" d="M431.078,271.083l-48.3,48.309L319.388,256l63.392-63.381,48.3,48.3A21.329,21.329,0,0,1,431.078,271.083Z"/><polygon class="cls-4" points="382.78 320.038 319.388 383.42 256.006 320.038 319.388 256.646 382.78 320.038"/><rect class="cls-3" x="211.178" y="337.957" width="89.646" height="89.639" transform="translate(-195.682 293.132) rotate(-45)"/><polygon class="cls-1" points="319.388 256 256.006 319.392 192.614 256 256.006 192.619 319.388 256"/><polygon class="cls-2" points="351.996 96 319.388 129.227 255.996 65.835 287.996 32 309.329 74.667 351.996 96"/><polygon class="cls-4" points="255.996 446.165 223.996 480 202.662 437.333 159.996 416 192.614 382.773 255.996 446.165"/><path d="M438.623,233.372l-48.3-48.3,0-.005,0,0L334.4,129.153l25.208-25.681a10.666,10.666,0,0,0-2.843-17.013L317.283,66.716,297.54,27.23a10.666,10.666,0,0,0-17.29-2.559L248.359,58.39,73.377,233.372a32,32,0,0,0,0,45.256L177.6,382.847l-25.209,25.681a10.668,10.668,0,0,0,2.843,17.013l39.486,19.742,19.743,39.487a10.666,10.666,0,0,0,17.291,2.559l31.89-33.718L438.623,278.628a32,32,0,0,0,0-45.256ZM319.388,367.692l-48.3-48.3,48.3-48.3,48.3,48.3ZM256,431.08l-48.3-48.3,48.3-48.3,48.3,48.3ZM144.309,319.389l48.3-48.3,48.3,48.3-48.3,48.3ZM256,304.3,207.7,256,256,207.7,304.3,256ZM192.611,144.309l48.3,48.3-48.3,48.3-48.3-48.3ZM256,80.92l48.3,48.3-48.3,48.3-48.3-48.3Zm15.085,111.692,48.3-48.3,48.3,48.3-48.3,48.3ZM285.276,50.4l14.516,29.033a10.674,10.674,0,0,0,4.771,4.77l29.559,14.779-14.8,15.082-48.44-48.441ZM85.338,256a10.6,10.6,0,0,1,3.124-7.542L129.223,207.7l48.3,48.3-48.3,48.3L88.462,263.543A10.6,10.6,0,0,1,85.338,256ZM226.724,461.6l-14.517-29.033a10.661,10.661,0,0,0-4.771-4.771l-29.558-14.779,14.8-15.081,48.441,48.44ZM423.537,263.543l-40.76,40.76-48.3-48.3,48.3-48.3,40.76,40.761a10.667,10.667,0,0,1,0,15.085Z"/></g></svg>